PathFileType	4	(X/Y/Z)	C:/Users/beibeiliu/ov580/test_trc/User1\sequence.17_training_dense_right.trc
DataRate	CameraRate	NumFrames	NumMarkers	Units	OrigDataRate	OrigDataStartFrame	OrigNumFrames
120	120	14	19	mm	120	1	292
Frame#	Time	ThumbCMC			ThumbMCP			ThumbIP			ThumbTip			IndexMCP			IndexPIP			IndexTip			MiddleMCP			MiddlePIP			MiddleTip			RingMCP			RingPIP			RingTip			PinkyMCP			PinkyPIP			PinkyTip			BackHand1			BackHand2			BackHand3	
		X0	Y0	Z0	X1	Y1	Z1	X2	Y2	Z2	X3	Y3	Z3	X4	Y4	Z4	X5	Y5	Z5	X6	Y6	Z6	X7	Y7	Z7	X8	Y8	Z8	X9	Y9	Z9	X10	Y10	Z10	X11	Y11	Z11	X12	Y12	Z12	X13	Y13	Z13	X14	Y14	Z14	X15	Y15	Z15	X16	Y16	Z16	X17	Y17	Z17	X18	Y18	Z18	
0	0	132.846	27.0167	59.9404	104.857	10.4199	53.9358	84.6794	-1.69719	39.8737	66.8621	-9.5718	34.3249	145.797	16.5745	-21.9964	144.763	14.7523	-50.5806	143.443	16.2667	-71.2211	177.922	18.1267	-30.1178	176.395	15.0399	-58.3072	183.656	10.398	-87.9076	199.294	11.9751	-22.295	204.641	10.0633	-49.8561	212.387	5.79956	-74.7461	223.135	-2.59339	0.156058	236.862	-8.57159	-13.2166	250.812	-8.18686	-28.5338	195.301	29.0385	25.6251	196.215	46.461	56.4435	161.849	41.4402	39.9014	
1	0.00833333	130.105	25.3055	56.7521	109.694	9.25847	54.2961	86.2333	-2.18098	38.3736	66.5222	-7.71741	38.4034	145.727	15.7388	-20.9972	142.66	16.0772	-48.9373	147.283	16.0004	-74.0697	174.04	17.8466	-28.5731	175.98	14.5419	-61.4106	183.189	10.9476	-88.8212	197.181	12.3821	-23.8996	208.46	9.90286	-45.3987	210.853	5.22583	-73.6537	221.931	-2.4464	1.3072	237.151	-8.64166	-13.6287	248.538	-9.4653	-33.5482	194.804	28.8621	26.8045	196.141	45.7123	57.1921	160.881	41.5512	37.5009	
2	0.0166667	129.733	27.6348	62.4856	109.145	8.34592	52.6484	85.5628	-1.28469	40.0681	68.3516	-8.02823	35.7221	146.098	15.8959	-20.7864	141.961	15.4881	-44.456	147.934	15.4544	-70.085	174.513	17.8579	-32.9695	175.607	14.807	-60.094	183.729	10.9408	-89.2916	199.865	12.7147	-21.3359	204.381	10.1914	-45.1696	211.475	4.46438	-71.5612	222.62	-1.26115	0.329369	235.303	-8.53305	-10.7501	246.291	-8.00568	-29.4657	195.587	29.3062	26.3906	198.961	46.1636	54.9407	162.835	42.8091	39.4252	
3	0.025	128.383	26.2688	60.3409	107.907	9.51963	56.1047	85.8401	-2.36307	38.9687	66.2682	-8.3458	37.2351	143.971	15.9155	-18.4448	142.191	15.1182	-48.2185	149.098	15.4907	-71.1279	178.264	17.9115	-29.9809	179.626	14.3386	-60.2277	185.817	9.89622	-86.7157	198.423	13.6987	-22.8257	206.198	10.7111	-48.6075	210.114	4.26458	-72.0447	222.091	-0.855922	1.73257	233.235	-7.78266	-9.61464	249.54	-8.5047	-31.6812	192.777	31.0675	26.1746	197.408	45.1324	58.6411	158.888	40.575	36.9837	
4	0.0333333	127.35	26.7529	58.911	108.784	9.12303	54.7852	86.2401	-1.51359	40.49	66.6347	-9.08092	36.2978	145.682	16.637	-22.2433	142.023	16.2668	-45.0323	149.187	15.3322	-70.4912	173.353	18.6815	-27.1776	177.441	14.1628	-60.4417	182.384	10.9004	-85.5661	197.271	12.8958	-18.1148	203.287	10.3958	-49.8166	210.263	5.32931	-73.8311	222.367	-0.665026	4.61794	236.045	-7.99701	-13.8772	249.543	-9.92269	-32.2942	193.616	31.2223	29.344	200.492	46.889	57.6907	164.559	41.7098	40.4124	
5	0.0416667	128.208	26.2152	57.6924	110.519	8.57417	53.3992	89.9111	-1.25726	43.2801	69.5577	-8.36738	38.0512	143.044	16.5462	-21.1325	146.497	15.9694	-47.9327	143.516	18.025	-73.3251	176.432	18.7906	-27.5938	180.218	15.4137	-57.1241	182.41	10.7924	-84.3704	197.188	13.6095	-22.0339	206.52	11.5739	-46.587	208.204	4.55368	-70.5038	225.412	-1.52626	2.02655	233.314	-6.95457	-11.8585	252.188	-8.51429	-32.5415	198.229	29.5623	26.7242	198.113	45.0575	55.199	164.542	40.7806	36.3858	
6	0.05	130.641	25.9094	58.4094	107.656	10.7936	55.4784	84.556	0.206192	42.6444	66.8764	-7.12268	40.8031	144.383	16.7502	-21.4623	141.267	17.0328	-48.1941	148.789	17.4853	-72.2548	173.816	19.6512	-29.192	177.868	15.4119	-57.6429	183.403	10.4948	-86.5304	201.315	14.256	-21.5695	207.627	11.3614	-46.7323	211.826	5.12762	-70.1419	221.933	-0.304413	2.8814	237.834	-8.48395	-11.7298	252.126	-9.5259	-33.0037	194.65	32.2235	28.8169	195.735	46.0872	57.3525	162.18	40.7876	37.2355	
7	0.0583333	129.906	27.4306	62.3577	107.814	10.4132	54.8451	86.1563	-0.0522357	42.768	66.0508	-6.76524	38.6037	142.484	17.8613	-21.8972	144.514	16.4347	-50.2283	146.551	18.9593	-74.8343	176.153	18.9743	-30.902	178.379	15.2864	-59.44	186.934	10.6096	-90.5302	202.039	13.3396	-22.4213	208.769	11.0094	-48.0534	208.945	5.8891	-70.7094	221.962	0.858064	3.75643	233.58	-6.5558	-10.8546	251.098	-7.11576	-30.7431	193.918	32.2508	24.1733	196.284	47.7508	58.6446	159.788	42.7214	39.6911	
8	0.0666667	131.785	25.1932	57.2404	107.988	10.0004	55.0825	88.8803	-0.469268	43.0776	67.9176	-7.22432	40.2148	144.685	17.1678	-23.2344	143.308	17.7712	-48.5579	147.929	17.8993	-70.5991	176.792	19.5887	-29.746	179.606	14.9281	-61.6631	183.464	10.6295	-84.9233	198.251	14.7961	-19.1955	204.988	11.2982	-45.8977	211.079	5.88544	-73.5518	224.083	0.655109	2.48463	234.002	-7.55065	-13.8192	250.269	-8.59538	-28.0504	198.301	32.715	25.7161	199.433	46.2685	55.8143	163.421	41.9027	40.5893	
9	0.075	129.84	28.2122	61.7989	107.229	9.50739	54.8754	87.4227	0.300575	43.436	66.4472	-6.71237	38.2794	146.519	17.9582	-23.0474	141.439	16.9651	-45.0944	146.497	18.0349	-73.5592	173.351	20.5617	-32.6635	178.438	15.5469	-61.3611	181.782	12.0055	-85.7393	199.024	15.1592	-19.2996	203.606	11.5938	-46.1428	208.825	5.62489	-72.0321	225.855	0.918312	3.3037	234.768	-6.34269	-12.9434	246.874	-6.68917	-32.5748	192.984	31.5605	28.9103	198.912	45.4853	55.1475	165	44.0593	40.7619	
10	0.0833333	131.765	27.8204	58.0516	104.816	11.0008	52.9001	84.0179	0.531109	43.1281	65.9588	-7.67468	36.7229	144.17	19.0617	-19.693	141.341	18.2841	-49.4534	149.442	18.9887	-71.025	175.7	20.4938	-31.7872	180.5	17.3792	-57.5998	184.099	12.1353	-86.1949	200.789	15.6619	-23.0602	204.958	12.743	-47.1572	209.185	6.23883	-72.0616	225.959	0.969344	3.35638	234.196	-5.52855	-13.3199	249.161	-6.47412	-35.1686	193.222	33.3874	30.0367	197.542	49.2036	58.1359	163.791	42.77	41.5231	
11	0.0916667	131.052	28.3595	62.1585	110.798	9.67081	52.3936	84.3174	-0.977771	39.016	63.8378	-7.22101	35.9926	142.705	19.1772	-22.6087	144.12	19.0739	-49.2409	147.499	19.9057	-74.4081	172.913	21.3573	-29.182	179.136	18.1632	-59.9108	181.084	13.5943	-87.6322	199.947	16.7845	-22.7674	206.04	12.9384	-47.3749	208.466	5.69054	-74.8118	223.215	1.19229	-2.34748	236.967	-5.56444	-15.6826	250.215	-6.90481	-33.0178	195.532	32.3663	24.5984	197.031	47.8475	56.5064	159.774	41.9257	37.2832	
12	0.1	128.609	28.4964	60.655	109.569	9.48407	51.9145	88.0529	-0.454791	42.1998	67.8137	-6.54412	37.6861	142.158	20.7956	-25.251	144.486	19.2316	-49.554	144.391	19.2679	-70.8803	173.24	22.0396	-34.6315	181.194	16.8933	-62.5218	184.279	12.5101	-88.2093	198.976	16.1358	-24.6491	207.935	12.2197	-50.9063	207.243	6.70125	-75.1197	225.578	1.4482	-1.11873	234.688	-5.43412	-15.6464	247.873	-7.07576	-34.9178	193.95	34.568	24.8414	196.992	46.5423	55.559	160.623	45.1558	39.5878	
13	0.108333	132.666	27.0455	57.15	108.668	8.94364	51.7647	88.7538	-0.558253	39.5369	68.9002	-6.79699	38.5922	146.444	19.2951	-22.6224	146.074	19.266	-49.4381	146.324	20.8387	-76.3436	178.38	21.7968	-29.8049	180.916	17.8432	-58.6872	185.821	12.7689	-90.6459	202.486	15.4095	-25.1989	202.46	12.0828	-49.3096	209.643	6.42727	-71.2393	225.734	1.94164	2.7887	237.556	-6.71741	-15.3722	246.004	-6.52173	-33.0923	194.263	34.0421	28.052	197.839	46.5329	54.2354	160.626	45.2133	39.4715	
